<svg width="200" height="200" xmlns="http://www.w3.org/2000/svg">
  <defs>
    <linearGradient y2="100%" x2="100%" y1="0%" x1="0%" id="skyGradient">
      <stop stop-color="#00008B" offset="0%"/>
      <stop stop-color="#00BFFF" offset="100%"/>
    </linearGradient>
  </defs>
  <g>
    <path id="svg_24" d="m10,25c0,-8.15068 6.84932,-15 15,-15l150,0c8.15068,0 15,6.84932 15,15l0,150c0,8.15068 -6.84932,15 -15,15l-150,0c-8.15068,0 -15,-6.84932 -15,-15l0,-150z" fill="url(#skyGradient)"/>
    <path id="svg_1" d="m10,25c0,-8.15068 6.84932,-15 15,-15l150,0c8.15068,0 15,6.84932 15,15l0,150c0,8.15068 -6.84932,15 -15,15l-150,0c-8.15068,0 -15,-6.84932 -15,-15l0,-150z" fill="url(#skyGradient)"/>
    <g stroke="null" id="svg_2" fill="white">
      <circle id="svg_3" r="0.66935" cy="32.91185" cx="27.64115"/>
      <circle id="svg_4" r="0.66935" cy="80.2647" cx="123.35885"/>
      <circle id="svg_5" r="0.66935" cy="118.14699" cx="83.47647"/>
      <circle id="svg_6" r="0.50201" cy="51.85299" cx="59.54705"/>
      <circle id="svg_7" r="0.50201" cy="32.91185" cx="99.42943"/>
      <circle id="svg_8" r="0.50201" cy="146.5587" cx="43.5941"/>
      <circle id="svg_9" r="0.33467" cy="89.73528" cx="75.5"/>
      <circle id="svg_10" r="0.33467" cy="156.02927" cx="131.33533"/>
      <circle id="svg_11" r="0.33467" cy="13.97071" cx="11.6882"/>
      <circle id="svg_12" r="0.33467" cy="80.2647" cx="35.61762"/>
      <circle id="svg_13" r="0.33467" cy="42.38242" cx="115.38238"/>
      <circle id="svg_14" r="0.33467" cy="99.20585" cx="139.3118"/>
      <circle id="svg_15" r="0.33467" cy="146.5587" cx="19.66467"/>
      <circle id="svg_16" r="0.26774" cy="118.14699" cx="51.57057"/>
      <circle id="svg_17" r="0.26774" cy="61.32356" cx="91.45295"/>
      <circle id="svg_18" r="0.26774" cy="23.44128" cx="131.33533"/>
      <circle id="svg_19" r="0.26774" cy="70.79413" cx="11.6882"/>
      <circle id="svg_20" r="0.26774" cy="137.08813" cx="107.4059"/>
      <circle id="svg_21" r="0.26774" cy="13.97071" cx="67.52352"/>
      <circle id="svg_22" r="0.26774" cy="156.02927" cx="27.64115"/>
      <circle id="svg_23" r="0.26774" cy="108.67642" cx="123.35885"/>
    </g>
  </g>
</svg>
